
info
[code]
       Grown Ups 2010 DVDSCR-XViD-IMAGiNE
********************************************************************************************************************

Ripper ...........: IMAGiNE                                      IMDB Rating.......:5.4/10                            
Video Codec.......: Xvid                                         Release Date......:25 June 2010
Audio Codec.......:AC3                                           Runtime.......:1h 42mn
Audio Bitrate.....:448                                           Language..........:ENGLISH 
Subtitles.........:NIL                                            
Resolution...... 720 x 384                                     IMDb URL..........:http://www.imdb.com/title/tt1375670/


DETAILS:

General
Complete name                    : Grown Ups 2010 DVDSCR-XViD-IMAGiNE.avi
Format                           : AVI
Format/Info                      : Audio Video Interleave
File size                        : 1.37 GiB
Duration                         : 1h 42mn
Overall bit rate                 : 1 913 Kbps
Writing library                  : VirtualDub build 32706/release

Video
Format                           : MPEG-4 Visual
Codec ID/Hint                    : XviD
Duration                         : 1h 42mn
Bit rate                         : 1 647 Kbps
Width                            : 720 pixels
Height                           : 384 pixels
Display aspect ratio             : 1.875
Frame rate                       : 23.976 fps
Resolution                       : 24 bits
Colorimetry                      : 4:2:0
Scan type                        : Progressive
Bits/(Pixel*Frame)               : 0.249
Stream size                      : 1.18 GiB (86%)
Writing library                  : XviD 50

Audio
Format                           : AC-3
Format/Info                      : Audio Coding 3
Codec ID                         : 2000
Duration                         : 1h 42mn
Bit rate mode                    : Constant
Bit rate                         : 256 Kbps
Channel(s)                       : 2 channels
Channel positions                : L R
Sampling rate                    : 48.0 KHz
Stream size                      : 188 MiB (13%)
Alignment                        : Aligned on interleaves
Interleave, duration             : 42 ms (1.00 video frame)
Interleave, preload duration     : 512 ms





NOTES:

IMAGiNE bringing you another release.....Grown Ups 2010 DVDSCR-XViD-IMAGiNE.
For this one all we did was a simple rip from the DVD source. used, with sharpness,resize,crop and white balance
We left the the water mark in. Fixed the dup Frame problem thats was on the source
And keep the audio the way it was 
And a Big Thank's to KiNGDOM for the sources.. 
Hope your doing better Kingben
Enjoy  
[/code]
screens: